<?xml version="1.0" encoding="utf-8"?>
<!-- Generator: Adobe Illustrator 19.2.0, SVG Export Plug-In . SVG Version: 6.00 Build 0)  -->
<svg version="1.1" id="Layer_1" xmlns="http://www.w3.org/2000/svg" xmlns:xlink="http://www.w3.org/1999/xlink" x="0px" y="0px"
	 viewBox="0 0 125 48" style="enable-background:new 0 0 125 48;" xml:space="preserve">
<style type="text/css">
	.st0{fill:#FFFFFF;}
</style>
<g>
	<g>
		<path class="st0" d="M29.5,1.4C17-2,4.1,5.5,0.8,17.9c-2.9,10.7,2.1,21.6,11.4,26.6c-4.1-3.1-6.4-8.1-5.8-13.3
			c0.1-1.2,0.3-2.3,0.6-3.4c0.8-2.4,0.7-2.8,6.4-10.3c3.9-5.1,5.2-9.2,5.5-11.9c0.4,0.9,2.7,5.9,5.1,11.3c0.3,0.8,0.4,1.7,0.1,2.9
			c-1.4,6.5-13.2,7.5-6.8,12.1c6.8,4.9,6.1,9.8,1,15c1.4,0.3,2.8,0.5,4.2,0.5c7.4-5.2,6.3-11.3-0.5-16.2c-6.4-4.6,5.2-5,6.7-11.6
			c0.3-1.2,0-2.4-0.5-3.5c4.1-3,7.7-5.5,8.2-5.9c-1.1,2.5-2,6.7-1.2,13.1c1.1,8.3,0.9,9.5,0.5,11.3c-0.3,1.4-0.7,2.8-1.4,4.1
			c-2.1,4.8-6.6,8-11.7,8.6c10.6,0.3,20.4-6.7,23.2-17.3C49.4,17.6,42,4.7,29.5,1.4z M31.2,8.8l-4.6,3.5l-2.3-5.4l0,0l0,0l4.6-3.5
			L31.2,8.8L31.2,8.8L31.2,8.8z"/>
		<g>
			<g>
				<path class="st0" d="M78,24.2c-1.1,0-2.2-0.2-3.1-0.5c-0.9-0.4-1.7-0.9-2.4-1.6c-0.7-0.7-1.2-1.5-1.5-2.5
					c-0.4-1-0.5-2.1-0.5-3.3c0-1.2,0.2-2.3,0.5-3.3c0.4-1,0.9-1.8,1.5-2.5C73.2,9.8,74,9.3,75,8.9c0.9-0.4,2-0.6,3.1-0.6
					c1.1,0,2.2,0.2,3.1,0.6c0.9,0.4,1.7,0.9,2.4,1.6c0.7,0.7,1.2,1.5,1.5,2.5c0.4,1,0.5,2.1,0.5,3.3c0,1.2-0.2,2.4-0.5,3.3
					c-0.4,1-0.9,1.8-1.5,2.5c-0.7,0.7-1.5,1.2-2.4,1.6C80.2,24.1,79.2,24.2,78,24.2 M78,21.8c0.7,0,1.3-0.1,1.9-0.4
					c0.5-0.3,1-0.7,1.3-1.1c0.4-0.5,0.6-1.1,0.8-1.7c0.2-0.7,0.3-1.4,0.3-2.2c0-1.2-0.2-2.3-0.6-3.2c-0.4-0.9-0.9-1.5-1.6-1.8
					c-0.7-0.3-1.3-0.5-2-0.5c-0.7,0-1.3,0.1-1.8,0.4c-0.5,0.3-1,0.6-1.3,1.1c-0.4,0.5-0.6,1.1-0.8,1.7c-0.2,0.7-0.3,1.4-0.3,2.2
					c0,0.8,0.1,1.6,0.3,2.2c0.2,0.7,0.4,1.3,0.8,1.7c0.4,0.5,0.8,0.9,1.3,1.1C76.7,21.7,77.3,21.8,78,21.8"/>
				<path class="st0" d="M103.7,24.2c-0.8,0-1.6-0.1-2.3-0.2c-0.7-0.1-1.4-0.2-1.9-0.4v-2.6c0.6,0.2,1.3,0.4,2,0.5
					c0.7,0.1,1.3,0.2,1.9,0.2c0.7,0,1.2-0.1,1.6-0.2c0.4-0.1,0.7-0.3,0.9-0.5c0.2-0.2,0.3-0.3,0.4-0.6c0.1-0.2,0.2-0.4,0.2-0.7
					c0-0.2,0-0.5-0.1-0.7c-0.1-0.2-0.2-0.4-0.4-0.6c-0.2-0.2-0.8-0.5-1.7-0.9l-1.1-0.5c-0.5-0.2-1-0.4-1.3-0.6
					c-0.4-0.2-0.6-0.3-0.8-0.5c-0.2-0.1-0.3-0.2-0.5-0.4c-0.4-0.4-0.7-0.8-0.9-1.3c-0.2-0.5-0.3-1-0.3-1.6c0-0.9,0.3-1.6,0.8-2.3
					c0.5-0.7,1.2-1.2,2.1-1.5c0.9-0.3,1.8-0.5,2.7-0.5c0.9,0,1.7,0,2.4,0.1c0.7,0.1,1.2,0.2,1.6,0.3v2.5c-0.4-0.1-0.7-0.2-1-0.2
					c-0.3-0.1-0.7-0.1-1.2-0.2c-0.5-0.1-0.9-0.1-1.3-0.1c-0.8,0-1.5,0.1-2,0.3c-0.5,0.2-0.8,0.4-0.9,0.7c-0.1,0.3-0.2,0.6-0.2,0.9
					c0,0.3,0.1,0.5,0.2,0.7c0.1,0.2,0.3,0.4,0.5,0.5c0.2,0.2,0.5,0.3,0.7,0.4c0.3,0.1,0.6,0.3,0.9,0.4l1.2,0.5
					c0.3,0.1,0.6,0.3,0.9,0.4c0.3,0.1,0.5,0.2,0.7,0.4c0.2,0.1,0.4,0.2,0.6,0.4c0.2,0.1,0.3,0.3,0.5,0.4c0.4,0.4,0.7,0.8,0.9,1.3
					c0.2,0.5,0.3,1,0.3,1.6c0,0.8-0.1,1.5-0.4,2c-0.3,0.6-0.7,1.1-1.2,1.4c-0.5,0.4-1.1,0.7-1.8,0.8
					C105.4,24.1,104.6,24.2,103.7,24.2"/>
				<path class="st0" d="M109.5,23.9l6-15.2h3.4l6,15.2h-3.3l-1.3-3.5h-6.4l-1.3,3.5H109.5z M114.9,17.9h4.5l-2.2-6.2L114.9,17.9z"
					/>
				<path class="st0" d="M94.8,17.4c0.5-0.2,1-0.6,1.4-0.9c0.4-0.4,0.7-0.8,0.8-1.4c0.2-0.5,0.3-1.1,0.3-1.8c0-0.7-0.1-1.3-0.3-1.8
					c-0.2-0.6-0.5-1.1-0.9-1.5c-0.4-0.4-1-0.7-1.7-1c-0.7-0.2-1.6-0.4-2.6-0.4H87V11h3h1.5h0.2l0,0c0.4,0,0.8,0.1,1.2,0.3
					c0.4,0.2,0.7,0.5,0.9,0.8c0.2,0.4,0.3,0.8,0.3,1.3c0,0.3-0.1,0.6-0.2,1c-0.1,0.4-0.4,0.7-0.8,1c-0.4,0.3-1,0.4-1.6,0.4H90v-4.2
					l-3,1.2v11.2h3v-5.9h0.8h0.5c0.2,0,0.3,0,0.4,0l3.5,5.9h3.6L94.8,17.4z"/>
				<path class="st0" d="M69.1,18.2c-0.1-0.5-0.4-0.9-0.8-1.3c-0.4-0.4-0.9-0.8-1.6-1c0.6-0.4,1-0.8,1.3-1.3
					c0.3-0.5,0.4-1.2,0.4-1.9c0-0.5-0.1-0.9-0.2-1.4c-0.2-0.4-0.4-0.9-0.8-1.2c-0.2-0.2-0.4-0.4-0.8-0.6c-0.3-0.2-0.8-0.4-1.3-0.5
					c-0.6-0.1-1.3-0.2-2.1-0.2h-5.1v2.3H63l0,0h0.1c0.4,0,0.7,0.1,1,0.2c0.3,0.1,0.5,0.2,0.6,0.4c0.2,0.2,0.3,0.4,0.4,0.7
					c0.1,0.3,0.1,0.5,0.1,0.8c0,0.3,0,0.6-0.1,0.8c-0.1,0.3-0.2,0.5-0.4,0.7c-0.2,0.2-0.4,0.3-0.6,0.4c-0.3,0.1-0.6,0.2-0.9,0.2
					h-1.9v-3.5l-3,1.2v11.2h5.5c1.1,0,2-0.1,2.7-0.3c0.7-0.2,1.2-0.5,1.7-0.9c0.4-0.4,0.7-0.9,0.9-1.4c0.2-0.5,0.3-1.1,0.3-1.7
					C69.2,19.1,69.2,18.6,69.1,18.2 M65.9,20.3c-0.1,0.3-0.2,0.5-0.4,0.7c-0.2,0.2-0.5,0.4-0.8,0.5c-0.3,0.1-0.7,0.2-1.2,0.2h-2.2
					v-4.3h2.2c0.5,0,0.9,0.1,1.2,0.2c0.3,0.1,0.6,0.3,0.8,0.5c0.2,0.2,0.3,0.4,0.4,0.7c0.1,0.3,0.1,0.5,0.1,0.8
					C66,19.7,66,20,65.9,20.3"/>
			</g>
			<g>
				<polygon class="st0" points="58.2,29 62.3,29 58.2,30.7 				"/>
				<path class="st0" d="M65.1,39.6c-0.6,0-1.1,0-1.6-0.1c-0.5-0.1-0.9-0.2-1.3-0.3v-1.7c0.4,0.1,0.9,0.2,1.4,0.3
					c0.5,0.1,0.9,0.1,1.3,0.1c0.5,0,0.8,0,1.1-0.1c0.3-0.1,0.5-0.2,0.6-0.3c0.1-0.1,0.2-0.2,0.3-0.4C67,37,67,36.8,67,36.6
					c0-0.2,0-0.3-0.1-0.5c-0.1-0.2-0.2-0.3-0.3-0.4c-0.2-0.2-0.5-0.4-1.2-0.6l-0.8-0.3c-0.4-0.1-0.7-0.3-0.9-0.4
					c-0.3-0.1-0.4-0.2-0.6-0.3c-0.1-0.1-0.2-0.2-0.3-0.3c-0.3-0.3-0.5-0.6-0.6-0.9c-0.1-0.3-0.2-0.7-0.2-1.1c0-0.6,0.2-1.1,0.5-1.6
					c0.4-0.5,0.8-0.8,1.4-1c0.6-0.2,1.2-0.3,1.9-0.3c0.6,0,1.2,0,1.6,0.1c0.5,0.1,0.8,0.1,1.1,0.2v1.7c-0.2-0.1-0.5-0.1-0.7-0.2
					c-0.2,0-0.5-0.1-0.8-0.1c-0.3,0-0.6-0.1-0.9-0.1c-0.6,0-1,0.1-1.4,0.2c-0.3,0.1-0.5,0.3-0.6,0.5c-0.1,0.2-0.1,0.4-0.1,0.6
					c0,0.2,0,0.3,0.1,0.4c0.1,0.1,0.2,0.2,0.3,0.3c0.1,0.1,0.3,0.2,0.5,0.3c0.2,0.1,0.4,0.2,0.6,0.3l0.8,0.3
					c0.2,0.1,0.4,0.2,0.6,0.3c0.2,0.1,0.4,0.2,0.5,0.3c0.2,0.1,0.3,0.2,0.4,0.3c0.1,0.1,0.2,0.2,0.3,0.3c0.3,0.3,0.5,0.6,0.6,0.9
					c0.1,0.3,0.2,0.7,0.2,1.1c0,0.5-0.1,1-0.3,1.4c-0.2,0.4-0.5,0.7-0.8,1c-0.4,0.3-0.8,0.5-1.3,0.6C66.2,39.6,65.7,39.6,65.1,39.6"
					/>
				<polygon class="st0" points="72.9,39.4 72.9,30.8 69.7,30.8 69.7,29 78.2,29 78.2,30.8 75,30.8 75,39.4 				"/>
				<path class="st0" d="M77.2,39.4L81.4,29h2.4L88,39.4h-2.3l-0.9-2.4h-4.5l-0.9,2.4H77.2z M81,35.3h3.1l-1.6-4.2L81,35.3z"/>
				<polygon class="st0" points="88.8,39.4 88.8,29 91.4,29 95.6,36.6 95.6,29 97.7,29 97.7,39.4 95.1,39.4 90.9,31.9 90.9,39.4 
									"/>
				<path class="st0" d="M112.3,39.7c-1.5,0-2.6-0.3-3.4-1c-0.8-0.7-1.2-1.7-1.2-3V29h2.2v6.5c0,0.8,0.2,1.3,0.6,1.7
					c0.4,0.4,1,0.6,1.8,0.6c0.8,0,1.4-0.2,1.8-0.6c0.4-0.4,0.6-1,0.6-1.7V29h2.2v6.6c0,1.3-0.4,2.3-1.2,3
					C115,39.3,113.8,39.7,112.3,39.7"/>
				<polygon class="st0" points="118.2,39.4 118.2,29 120.4,29 120.4,37.7 125,37.7 125,39.4 				"/>
				<polygon class="st0" points="58.2,31.8 58.2,39.4 60.4,39.4 60.4,31 				"/>
				<path class="st0" d="M106.8,35.5c-0.1-0.3-0.3-0.6-0.5-0.9c-0.3-0.3-0.7-0.5-1.1-0.7c0.4-0.2,0.7-0.5,0.9-0.9
					c0.2-0.4,0.3-0.8,0.3-1.3c0-0.3-0.1-0.6-0.2-0.9c-0.1-0.3-0.3-0.6-0.5-0.8c-0.1-0.1-0.3-0.3-0.5-0.4c-0.2-0.1-0.5-0.3-0.9-0.4
					c-0.4-0.1-0.9-0.1-1.4-0.1h-3.5v1.5h2.1h1.3c0.3,0,0.5,0,0.7,0.1c0.2,0.1,0.3,0.2,0.4,0.3c0.1,0.1,0.2,0.3,0.3,0.5
					c0.1,0.2,0.1,0.4,0.1,0.5c0,0.2,0,0.4-0.1,0.5c-0.1,0.2-0.2,0.3-0.3,0.5c-0.1,0.1-0.3,0.2-0.4,0.3c-0.2,0.1-0.4,0.1-0.7,0.1
					h-1.3V31l-2.1,0.8v7.6h3.8c0.8,0,1.4-0.1,1.9-0.2c0.5-0.2,0.9-0.4,1.2-0.6c0.3-0.3,0.5-0.6,0.6-0.9c0.1-0.4,0.2-0.8,0.2-1.2
					C106.9,36.1,106.8,35.8,106.8,35.5 M104.6,37c-0.1,0.2-0.2,0.3-0.3,0.5c-0.1,0.1-0.3,0.2-0.5,0.3c-0.2,0.1-0.5,0.1-0.9,0.1h-1.5
					v-3h1.5c0.4,0,0.6,0,0.9,0.1c0.2,0.1,0.4,0.2,0.5,0.3c0.1,0.1,0.2,0.3,0.3,0.5c0.1,0.2,0.1,0.4,0.1,0.5
					C104.7,36.6,104.6,36.8,104.6,37"/>
			</g>
		</g>
	</g>
</g>
</svg>
