<?xml version="1.0" encoding="utf-8"?>
<!-- Generator: Adobe Illustrator 19.2.0, SVG Export Plug-In . SVG Version: 6.00 Build 0)  -->
<svg version="1.1" id="Layer_1" xmlns="http://www.w3.org/2000/svg" xmlns:xlink="http://www.w3.org/1999/xlink" x="0px" y="0px"
	 viewBox="0 0 315.8 48" style="enable-background:new 0 0 315.8 48;" xml:space="preserve">
<style type="text/css">
	.st0{fill:#FFFFFF;}
	.st1{fill-rule:evenodd;clip-rule:evenodd;fill:#FFFFFF;}
</style>
<g>
	<g>
		<path class="st0" d="M29.5-345.6C17-349,4.1-341.5,0.8-329.1c-2.9,10.7,2.1,21.6,11.4,26.6c-4.1-3.1-6.4-8.1-5.8-13.3
			c0.1-1.2,0.3-2.3,0.6-3.4c0.8-2.4,0.7-2.8,6.4-10.3c3.9-5.1,5.2-9.2,5.5-11.9c0.4,0.9,2.7,5.9,5.1,11.3c0.3,0.8,0.4,1.7,0.1,2.9
			c-1.4,6.5-13.2,7.5-6.8,12.1c6.8,4.9,6.1,9.8,1,15c1.4,0.3,2.8,0.5,4.2,0.5c7.4-5.2,6.3-11.3-0.5-16.2c-6.4-4.6,5.2-5,6.7-11.6
			c0.3-1.2,0-2.4-0.5-3.5c4.1-3,7.7-5.5,8.2-5.9c-1.1,2.5-2,6.7-1.2,13.1c1.1,8.3,0.9,9.5,0.5,11.3c-0.3,1.4-0.7,2.8-1.4,4.1
			c-2.1,4.8-6.6,8-11.7,8.6c10.6,0.3,20.4-6.7,23.2-17.3C49.4-329.4,42-342.3,29.5-345.6z M31.2-338.2l-4.6,3.5l-2.3-5.4l0,0l0,0
			l4.6-3.5L31.2-338.2L31.2-338.2L31.2-338.2z"/>
		<g>
			<g>
				<path class="st0" d="M78-322.8c-1.1,0-2.2-0.2-3.1-0.5c-0.9-0.4-1.7-0.9-2.4-1.6c-0.7-0.7-1.2-1.5-1.5-2.5
					c-0.4-1-0.5-2.1-0.5-3.3c0-1.2,0.2-2.3,0.5-3.3c0.4-1,0.9-1.8,1.5-2.5c0.7-0.7,1.5-1.2,2.4-1.6c0.9-0.4,2-0.6,3.1-0.6
					c1.1,0,2.2,0.2,3.1,0.6c0.9,0.4,1.7,0.9,2.4,1.6c0.7,0.7,1.2,1.5,1.5,2.5c0.4,1,0.5,2.1,0.5,3.3c0,1.2-0.2,2.4-0.5,3.3
					c-0.4,1-0.9,1.8-1.5,2.5c-0.7,0.7-1.5,1.2-2.4,1.6C80.2-322.9,79.2-322.8,78-322.8 M78-325.2c0.7,0,1.3-0.1,1.9-0.4
					c0.5-0.3,1-0.7,1.3-1.1c0.4-0.5,0.6-1.1,0.8-1.7c0.2-0.7,0.3-1.4,0.3-2.2c0-1.2-0.2-2.3-0.6-3.2c-0.4-0.9-0.9-1.5-1.6-1.8
					c-0.7-0.3-1.3-0.5-2-0.5c-0.7,0-1.3,0.1-1.8,0.4c-0.5,0.3-1,0.6-1.3,1.1c-0.4,0.5-0.6,1.1-0.8,1.7c-0.2,0.7-0.3,1.4-0.3,2.2
					c0,0.8,0.1,1.6,0.3,2.2c0.2,0.7,0.4,1.3,0.8,1.7c0.4,0.5,0.8,0.9,1.3,1.1C76.7-325.3,77.3-325.2,78-325.2"/>
				<path class="st0" d="M103.7-322.8c-0.8,0-1.6-0.1-2.3-0.2c-0.7-0.1-1.4-0.2-1.9-0.4v-2.6c0.6,0.2,1.3,0.4,2,0.5
					c0.7,0.1,1.3,0.2,1.9,0.2c0.7,0,1.2-0.1,1.6-0.2c0.4-0.1,0.7-0.3,0.9-0.5c0.2-0.2,0.3-0.3,0.4-0.6c0.1-0.2,0.2-0.4,0.2-0.7
					c0-0.2,0-0.5-0.1-0.7c-0.1-0.2-0.2-0.4-0.4-0.6c-0.2-0.2-0.8-0.5-1.7-0.9l-1.1-0.5c-0.5-0.2-1-0.4-1.3-0.6
					c-0.4-0.2-0.6-0.3-0.8-0.5c-0.2-0.1-0.3-0.2-0.5-0.4c-0.4-0.4-0.7-0.8-0.9-1.3c-0.2-0.5-0.3-1-0.3-1.6c0-0.9,0.3-1.6,0.8-2.3
					c0.5-0.7,1.2-1.2,2.1-1.5c0.9-0.3,1.8-0.5,2.7-0.5c0.9,0,1.7,0,2.4,0.1c0.7,0.1,1.2,0.2,1.6,0.3v2.5c-0.4-0.1-0.7-0.2-1-0.2
					c-0.3-0.1-0.7-0.1-1.2-0.2c-0.5-0.1-0.9-0.1-1.3-0.1c-0.8,0-1.5,0.1-2,0.3c-0.5,0.2-0.8,0.4-0.9,0.7c-0.1,0.3-0.2,0.6-0.2,0.9
					c0,0.3,0.1,0.5,0.2,0.7c0.1,0.2,0.3,0.4,0.5,0.5c0.2,0.2,0.5,0.3,0.7,0.4c0.3,0.1,0.6,0.3,0.9,0.4l1.2,0.5
					c0.3,0.1,0.6,0.3,0.9,0.4c0.3,0.1,0.5,0.2,0.7,0.4c0.2,0.1,0.4,0.2,0.6,0.4c0.2,0.1,0.3,0.3,0.5,0.4c0.4,0.4,0.7,0.8,0.9,1.3
					c0.2,0.5,0.3,1,0.3,1.6c0,0.8-0.1,1.5-0.4,2c-0.3,0.6-0.7,1.1-1.2,1.4c-0.5,0.4-1.1,0.7-1.8,0.8
					C105.4-322.9,104.6-322.8,103.7-322.8"/>
				<path class="st0" d="M109.5-323.1l6-15.2h3.4l6,15.2h-3.3l-1.3-3.5h-6.4l-1.3,3.5H109.5z M114.9-329.1h4.5l-2.2-6.2L114.9-329.1
					z"/>
				<path class="st0" d="M94.8-329.6c0.5-0.2,1-0.6,1.4-0.9c0.4-0.4,0.7-0.8,0.8-1.4c0.2-0.5,0.3-1.1,0.3-1.8c0-0.7-0.1-1.3-0.3-1.8
					c-0.2-0.6-0.5-1.1-0.9-1.5c-0.4-0.4-1-0.7-1.7-1c-0.7-0.2-1.6-0.4-2.6-0.4H87v2.3h3h1.5h0.2l0,0c0.4,0,0.8,0.1,1.2,0.3
					c0.4,0.2,0.7,0.5,0.9,0.8c0.2,0.4,0.3,0.8,0.3,1.3c0,0.3-0.1,0.6-0.2,1c-0.1,0.4-0.4,0.7-0.8,1c-0.4,0.3-1,0.4-1.6,0.4H90v-4.2
					l-3,1.2v11.2h3v-5.9h0.8h0.5c0.2,0,0.3,0,0.4,0l3.5,5.9h3.6L94.8-329.6z"/>
				<path class="st0" d="M69.1-328.8c-0.1-0.5-0.4-0.9-0.8-1.3c-0.4-0.4-0.9-0.8-1.6-1c0.6-0.4,1-0.8,1.3-1.3
					c0.3-0.5,0.4-1.2,0.4-1.9c0-0.5-0.1-0.9-0.2-1.4c-0.2-0.4-0.4-0.9-0.8-1.2c-0.2-0.2-0.4-0.4-0.8-0.6c-0.3-0.2-0.8-0.4-1.3-0.5
					c-0.6-0.1-1.3-0.2-2.1-0.2h-5.1v2.3H63l0,0h0.1c0.4,0,0.7,0.1,1,0.2c0.3,0.1,0.5,0.2,0.6,0.4c0.2,0.2,0.3,0.4,0.4,0.7
					c0.1,0.2,0.1,0.5,0.1,0.8c0,0.3,0,0.6-0.1,0.8c-0.1,0.3-0.2,0.5-0.4,0.7c-0.2,0.2-0.4,0.3-0.6,0.4c-0.3,0.1-0.6,0.2-0.9,0.2
					h-1.9v-3.5l-3,1.2v11.2h5.5c1.1,0,2-0.1,2.7-0.3c0.7-0.2,1.2-0.5,1.7-0.9c0.4-0.4,0.7-0.9,0.9-1.4c0.2-0.5,0.3-1.1,0.3-1.7
					C69.2-327.9,69.2-328.4,69.1-328.8 M65.9-326.7c-0.1,0.3-0.2,0.5-0.4,0.7c-0.2,0.2-0.5,0.4-0.8,0.5c-0.3,0.1-0.7,0.2-1.2,0.2
					h-2.2v-4.3h2.2c0.5,0,0.9,0.1,1.2,0.2c0.3,0.1,0.6,0.3,0.8,0.5c0.2,0.2,0.3,0.4,0.4,0.7c0.1,0.3,0.1,0.5,0.1,0.8
					C66-327.3,66-327,65.9-326.7"/>
			</g>
			<g>
				<polygon class="st0" points="58.2,-318 62.3,-318 58.2,-316.3 				"/>
				<path class="st0" d="M65.1-307.4c-0.6,0-1.1,0-1.6-0.1c-0.5-0.1-0.9-0.2-1.3-0.3v-1.7c0.4,0.1,0.9,0.2,1.4,0.3
					c0.5,0.1,0.9,0.1,1.3,0.1c0.5,0,0.8,0,1.1-0.1c0.3-0.1,0.5-0.2,0.6-0.3c0.1-0.1,0.2-0.2,0.3-0.4c0.1-0.1,0.1-0.3,0.1-0.5
					c0-0.2,0-0.3-0.1-0.5c-0.1-0.2-0.2-0.3-0.3-0.4c-0.2-0.2-0.5-0.4-1.2-0.6l-0.8-0.3c-0.4-0.1-0.7-0.3-0.9-0.4
					c-0.3-0.1-0.4-0.2-0.6-0.3c-0.1-0.1-0.2-0.2-0.3-0.3c-0.3-0.3-0.5-0.6-0.6-0.9c-0.1-0.3-0.2-0.7-0.2-1.1c0-0.6,0.2-1.1,0.5-1.6
					c0.4-0.5,0.8-0.8,1.4-1c0.6-0.2,1.2-0.3,1.9-0.3c0.6,0,1.2,0,1.6,0.1c0.5,0.1,0.8,0.1,1.1,0.2v1.7c-0.2-0.1-0.5-0.1-0.7-0.2
					c-0.2,0-0.5-0.1-0.8-0.1c-0.3,0-0.6-0.1-0.9-0.1c-0.6,0-1,0.1-1.4,0.2c-0.3,0.1-0.5,0.3-0.6,0.5c-0.1,0.2-0.1,0.4-0.1,0.6
					c0,0.2,0,0.3,0.1,0.4c0.1,0.1,0.2,0.2,0.3,0.3c0.1,0.1,0.3,0.2,0.5,0.3c0.2,0.1,0.4,0.2,0.6,0.3l0.8,0.3
					c0.2,0.1,0.4,0.2,0.6,0.3c0.2,0.1,0.4,0.2,0.5,0.3c0.2,0.1,0.3,0.2,0.4,0.3c0.1,0.1,0.2,0.2,0.3,0.3c0.3,0.3,0.5,0.6,0.6,0.9
					c0.1,0.3,0.2,0.7,0.2,1.1c0,0.5-0.1,1-0.3,1.4c-0.2,0.4-0.5,0.7-0.8,1c-0.4,0.3-0.8,0.5-1.3,0.6
					C66.2-307.4,65.7-307.4,65.1-307.4"/>
				<polygon class="st0" points="72.9,-307.6 72.9,-316.2 69.7,-316.2 69.7,-318 78.2,-318 78.2,-316.2 75,-316.2 75,-307.6 				"/>
				<path class="st0" d="M77.2-307.6l4.2-10.4h2.4l4.2,10.4h-2.3l-0.9-2.4h-4.5l-0.9,2.4H77.2z M81-311.7h3.1l-1.6-4.2L81-311.7z"/>
				<polygon class="st0" points="88.8,-307.6 88.8,-318 91.4,-318 95.6,-310.4 95.6,-318 97.7,-318 97.7,-307.6 95.1,-307.6 
					90.9,-315.1 90.9,-307.6 				"/>
				<path class="st0" d="M112.3-307.3c-1.5,0-2.6-0.3-3.4-1c-0.8-0.7-1.2-1.7-1.2-3v-6.6h2.2v6.5c0,0.8,0.2,1.3,0.6,1.7
					c0.4,0.4,1,0.6,1.8,0.6c0.8,0,1.4-0.2,1.8-0.6c0.4-0.4,0.6-1,0.6-1.7v-6.5h2.2v6.6c0,1.3-0.4,2.3-1.2,3
					C115-307.7,113.8-307.3,112.3-307.3"/>
				<polygon class="st0" points="118.2,-307.6 118.2,-318 120.4,-318 120.4,-309.3 125,-309.3 125,-307.6 				"/>
				<polygon class="st0" points="58.2,-315.2 58.2,-307.6 60.4,-307.6 60.4,-316 				"/>
				<path class="st0" d="M106.8-311.5c-0.1-0.3-0.3-0.6-0.5-0.9c-0.3-0.3-0.7-0.5-1.1-0.7c0.4-0.2,0.7-0.5,0.9-0.9
					c0.2-0.4,0.3-0.8,0.3-1.3c0-0.3-0.1-0.6-0.2-0.9c-0.1-0.3-0.3-0.6-0.5-0.8c-0.1-0.1-0.3-0.3-0.5-0.4c-0.2-0.1-0.5-0.3-0.9-0.4
					c-0.4-0.1-0.9-0.1-1.4-0.1h-3.5v1.5h2.1h1.3c0.3,0,0.5,0,0.7,0.1c0.2,0.1,0.3,0.2,0.4,0.3c0.1,0.1,0.2,0.3,0.3,0.5
					c0.1,0.2,0.1,0.4,0.1,0.5c0,0.2,0,0.4-0.1,0.5c-0.1,0.2-0.2,0.3-0.3,0.5c-0.1,0.1-0.3,0.2-0.4,0.3c-0.2,0.1-0.4,0.1-0.7,0.1
					h-1.3v-2.3l-2.1,0.8v7.6h3.8c0.8,0,1.4-0.1,1.9-0.2c0.5-0.2,0.9-0.4,1.2-0.6c0.3-0.3,0.5-0.6,0.6-0.9c0.1-0.4,0.2-0.8,0.2-1.2
					C106.9-310.9,106.8-311.2,106.8-311.5 M104.6-310c-0.1,0.2-0.2,0.3-0.3,0.5c-0.1,0.1-0.3,0.2-0.5,0.3c-0.2,0.1-0.5,0.1-0.9,0.1
					h-1.5v-3h1.5c0.4,0,0.6,0,0.9,0.1c0.2,0.1,0.4,0.2,0.5,0.3c0.1,0.1,0.2,0.3,0.3,0.5c0.1,0.2,0.1,0.4,0.1,0.5
					C104.7-310.4,104.6-310.2,104.6-310"/>
			</g>
		</g>
	</g>
</g>
<g>
	<g>
		<path class="st1" d="M94.2,32.5V7.6c0.3-0.2,0.6-0.1,0.8-0.1c7.1,0,14.2,0,21.2,0c1.9,0,3.7,0.1,5.5,0.7c3,1,4.5,3.1,4.6,6.3
			c0,2-0.1,3.9-1.5,5.5c1.7,2.3,1.7,4.8,1.2,7.4c-0.4,2.1-1.8,3.4-3.7,4.2c-1.4,0.6-2.9,0.9-4.5,0.9c-7.8,0-15.6,0-23.4,0
			C94.4,32.5,94.3,32.5,94.2,32.5 M100.2,17.3c0.2,0,0.3,0,0.4,0c5.4,0,10.7,0,16.1,0c0.5,0,1-0.1,1.5-0.2c0.6-0.2,0.9-0.6,1-1.2
			c0.3-1.9-0.3-2.8-2.3-3c-0.3,0-0.6,0-0.9,0c-5,0-10,0-14.9,0c-0.3,0-0.6-0.1-0.9,0.1V17.3z M100.2,27.1c0.2,0,0.3,0,0.5,0
			c5.3,0,10.6,0,15.9,0c0.5,0,1-0.1,1.5-0.2c0.5-0.2,0.9-0.5,1-1c0.3-2,0-2.9-2.1-3.1c-0.2,0-0.5,0-0.7,0c-5.1,0-10.1,0-15.2,0
			c-0.3,0-0.6-0.1-0.9,0.1V27.1z"/>
		<path class="st1" d="M169.1,7.6v5.2c-0.3,0.2-0.7,0.1-1,0.1c-6.9,0-13.9,0-20.8,0c-0.6,0-1.3,0-1.9,0.2c-1,0.3-1.3,0.8-1.3,2.1
			c0,1.2,0.3,1.7,1.3,2c0.5,0.2,1.1,0.2,1.6,0.2c4.1,0,8.3,0,12.4,0c1.9,0,3.7,0.2,5.5,0.9c2.6,1,4,3,4.1,5.8c0,0.3,0,0.6,0,0.9
			c0,4.2-1.9,6.5-6,7.2c-1.2,0.2-2.4,0.3-3.6,0.3c-7.3,0-14.5,0-21.8,0c-0.2,0-0.4,0-0.7,0v-5.2c0.3-0.2,0.6-0.1,0.9-0.1
			c6.9,0,13.8,0,20.8,0c0.3,0,0.6,0,1,0c2-0.1,2.8-1.2,2.3-3.1c-0.2-0.7-0.7-1.1-1.4-1.2c-0.5-0.1-1.1-0.1-1.7-0.2
			c-4.2,0-8.4,0-12.6,0c-1.9,0-3.7-0.2-5.4-1c-2.3-0.9-3.6-2.6-3.9-5.1c-0.1-0.4-0.1-0.9-0.1-1.3c0-4.4,2-6.8,6.4-7.5
			c1.2-0.2,2.3-0.3,3.5-0.3c7.2,0,14.4,0,21.5,0C168.6,7.5,168.8,7.5,169.1,7.6"/>
		<path class="st1" d="M23.4,18.2c1.3,0,2.6,0,3.9,0c0.9,0,1.6-0.6,2.2-1.2c1.6-1.6,3.3-3.2,4.9-4.9c1.5-1.5,3.3-2.3,5.4-2.3
			c2.5,0,5,0,7.4,0c2.1,0,3.9,0.7,5.3,2.2c1.6,1.6,3.2,3.1,4.7,4.7c0.9,1,2,1.4,3.4,1.4c9.7,0,19.3,0,29,0h1v5.2
			c-0.2,0.2-0.5,0.1-0.8,0.1c-10,0-20,0-30,0c-2.2,0-4.1-0.7-5.6-2.3c-1.6-1.6-3.2-3.2-4.8-4.8c-0.8-0.8-1.7-1.2-2.8-1.2
			c-2.1,0-4.1,0-6.2,0c-1,0-1.9,0.4-2.6,1.1c-1.7,1.7-3.3,3.3-5,5c-1.5,1.5-3.3,2.2-5.4,2.2c-1.3,0-2.6,0-3.9,0
			c-2.6,4-5.6,5.4-9.2,4.2c-3.2-1-5.3-4-5.1-7.5c0.1-3.2,2.5-6,5.7-6.8C18.3,12.8,21.3,14.4,23.4,18.2 M16.4,24.4
			c2,0,3.7-1.6,3.7-3.7c0-2-1.7-3.6-3.7-3.6c-2,0-3.6,1.6-3.6,3.6C12.8,22.8,14.4,24.4,16.4,24.4"/>
		<path class="st1" d="M242.5,17.3v5.3h-21.2c-0.7,2.4,0.7,4.4,3.2,4.5c3,0,6.1,0,9.1,0c3,0,5.9,0,8.9,0v5.4h-0.7
			c-5.7,0-11.4,0-17,0c-1.7,0-3.3-0.1-4.9-0.6c-3.5-1.1-5.4-3.4-5.7-7c-0.2-3.1-0.2-6.1,0-9.2c0.3-4.6,2.7-7.1,7.3-7.9
			c1.1-0.2,2.3-0.3,3.4-0.3c5.8,0,11.5,0,17.3,0c0.2,0,0.3,0,0.5,0v5.3h-0.9h-16.1c-0.2,0-0.4,0-0.6,0c-2.9,0-4.2,1.4-3.8,4.4H242.5
			z"/>
		<polygon class="st1" points="299.7,32.5 299.7,22.8 281.8,22.8 281.8,32.4 274.7,32.4 274.7,7.6 281.8,7.6 281.8,17.3 299.6,17.3 
			299.6,7.6 306.7,7.6 306.7,32.5 		"/>
		<path class="st1" d="M40.7,40.9c-1.8,3.6-5.1,5.2-8.5,4.4c-3.4-0.8-5.7-3.7-5.7-7.1c0-3.4,2.2-6.4,5.5-7.3
			c3.7-0.9,6.7,0.6,8.9,4.6c1.5,0,3,0,4.5,0c0.9,0,1.7-0.5,2.3-1.1c1.7-1.7,3.3-3.3,5-5c1.5-1.5,3.2-2.2,5.3-2.2
			c10.6,0,21.2,0,31.8,0h0.7v5.2c-0.3,0.2-0.6,0.1-0.9,0.1c-10.2,0-20.3,0-30.5,0c-1.4,0-2.6,0.4-3.6,1.5c-1.5,1.6-3.1,3.1-4.6,4.7
			c-1.5,1.5-3.2,2.2-5.3,2.2C44,40.9,42.4,40.9,40.7,40.9 M33.8,41.7c2,0,3.6-1.6,3.7-3.6c0-2-1.6-3.7-3.7-3.7c-2,0-3.6,1.6-3.6,3.6
			C30.2,40.1,31.8,41.7,33.8,41.7"/>
		<path class="st1" d="M272.9,27.1v5.3c-0.2,0.2-0.5,0.1-0.7,0.1c-5.7,0-11.4,0-17.1,0c-1.8,0-3.6-0.2-5.4-0.8
			c-3.2-1.1-5-3.4-5.3-6.7c-0.2-3.3-0.2-6.7,0-10c0.3-4,2.9-6.6,7.2-7.2c1.1-0.2,2.2-0.3,3.3-0.3c5.8,0,11.6,0,17.4,0h0.4v5.4H272
			c-5.5,0-10.9,0-16.4,0c-0.3,0-0.7,0-1,0c-2.1,0.2-3.1,1.3-3.1,3.4c0,2.5,0,4.9,0,7.4c0,2.3,1.2,3.5,3.5,3.5c5.6,0,11.3,0,16.9,0
			H272.9z"/>
		<polygon class="st1" points="199.7,12.9 199.7,32.4 192.5,32.4 192.5,7.6 212.1,7.6 212.1,12.9 		"/>
		<polygon class="st1" points="183.4,32.5 183.4,12.9 170.9,12.9 170.9,7.6 190.5,7.6 190.5,32.5 		"/>
		<path class="st1" d="M73.8,7.4h16.5v5.3H73.7c-1,2.1-2.5,3.6-4.7,4.3c-1.6,0.5-3.1,0.5-4.7-0.1c-3.1-1.1-5.1-4.1-4.9-7.4
			c0.2-3.2,2.6-6.1,5.7-6.8C68.8,1.9,71.7,3.5,73.8,7.4 M66.9,13.5c2,0,3.6-1.7,3.6-3.6c0-2-1.7-3.6-3.7-3.6c-2,0-3.6,1.6-3.6,3.7
			C63.2,12,64.8,13.6,66.9,13.5"/>
		<rect x="128.1" y="7.6" class="st1" width="7.1" height="24.9"/>
	</g>
</g>
</svg>
